<svg enable-background="new 0 0 512 512"  height="512" viewBox="0 0 511.974 511.974" width="512" xmlns="http://www.w3.org/2000/svg"><g fill="#9f85dc" xmlns="http://www.w3.org/2000/svg"><path d="m511.872 195.725c-.053-.588-.17-1.169-.35-1.732-.117-.503-.28-.994-.486-1.468-.239-.463-.525-.901-.853-1.306-.329-.481-.71-.924-1.135-1.323-.137-.119-.196-.282-.341-.401l-82.065-63.735v-66.056c0-14.138-11.462-25.6-25.6-25.6h-92.476l-37.027-28.749c-9.147-7.134-21.974-7.134-31.121 0l-37.035 28.749h-92.476c-14.138 0-25.6 11.461-25.6 25.6v66.057l-82.039 63.735c-.145.12-.205.282-.341.401-.425.398-.806.842-1.135 1.323-.328.405-.614.842-.853 1.306-.207.473-.369.965-.486 1.468-.178.555-.295 1.127-.35 1.707 0 .179-.102.333-.102.512v290.157c.012 5.428 1.768 10.708 5.009 15.061.051.077.06.171.119.239.06.068.188.145.273.239 4.794 6.308 12.25 10.027 20.173 10.061h460.8c7.954-.024 15.441-3.761 20.241-10.103.068-.085.171-.111.23-.196.06-.085.068-.162.12-.239 3.241-4.354 4.997-9.634 5.009-15.061v-290.134c-.001-.179-.094-.333-.103-.512zm-261.018-176.905c2.98-2.368 7.2-2.368 10.18 0l19.686 15.283h-49.493zm-223.129 476.084 223.13-173.321c2.982-2.364 7.199-2.364 10.18 0l223.189 173.321zm467.183-13.304-223.369-173.483c-9.149-7.128-21.972-7.128-31.121 0l-223.377 173.483v-272.367l139.836 108.587c3.726 2.889 9.088 2.211 11.977-1.515s2.211-9.088-1.515-11.977l-142.063-110.31 60.032-46.652v65.937c0 4.713 3.821 8.533 8.533 8.533 4.713 0 8.533-3.821 8.533-8.533v-153.6c0-4.713 3.82-8.533 8.533-8.533h290.133c4.713 0 8.533 3.82 8.533 8.533v153.6c0 4.713 3.82 8.533 8.533 8.533s8.533-3.821 8.533-8.533v-65.937l60.032 46.652-142.31 110.507c-2.448 1.855-3.711 4.883-3.305 7.928s2.417 5.637 5.266 6.786 6.096.679 8.501-1.232l140.083-108.774v272.367z"/><path d="m358.374 204.77v-34.133c0-56.554-45.846-102.4-102.4-102.4s-102.4 45.846-102.4 102.4 45.846 102.4 102.4 102.4c4.713 0 8.533-3.82 8.533-8.533s-3.82-8.533-8.533-8.533c-47.128 0-85.333-38.205-85.333-85.333s38.205-85.333 85.333-85.333 85.333 38.205 85.333 85.333v34.133c0 9.426-7.641 17.067-17.067 17.067s-17.067-7.641-17.067-17.067v-34.133c0-4.713-3.82-8.533-8.533-8.533s-8.533 3.82-8.533 8.533c0 18.851-15.282 34.133-34.133 34.133s-34.133-15.282-34.133-34.133 15.282-34.133 34.133-34.133c4.713 0 8.533-3.82 8.533-8.533s-3.82-8.533-8.533-8.533c-22.915-.051-43.074 15.13-49.354 37.168s2.847 45.565 22.347 57.601 44.622 9.65 61.507-5.843c1.858 18.046 17.543 31.464 35.659 30.505 18.117-.96 32.298-15.958 32.241-34.1z"/></g></svg>