<svg enable-background="new 0 0 511.973 511.973" viewBox="0 0 511.973 511.973" xmlns="http://www.w3.org/2000/svg" fill="#9f85dc"><path d="m470.137 50.714c-30.876-27.232-72.487-38.891-113.017-31.667-42.016 7.518-78.817 32.632-101.133 69.017-22.316-36.385-59.117-61.499-101.133-69.017-40.529-7.213-82.136 4.445-113.017 31.667-37.134 34.033-50.392 91.55-36.375 157.817.052.249.219.434.292.673.357 1.081.904 2.089 1.616 2.977.161.194.227.434.41.617.236.176.481.339.735.489.435.357.905.67 1.403.932.951.499 1.99.811 3.059.917.283.028.552.163.835.163.305-.043.608-.102.906-.177.287.013.574.011.86-.007.25-.053.435-.219.676-.292.54-.17 1.061-.395 1.554-.672.509-.266.989-.585 1.432-.952.19-.159.426-.223.604-.401l30.017-30.009.1-.066c6.58-6.599 17.241-6.688 23.931-.201s6.929 17.146.535 23.926l-49.233 49.233c-2.164 2.151-3.014 5.295-2.23 8.244s3.084 5.255 6.03 6.047 6.092-.049 8.25-2.207l48.694-48.693c.067-.064.156-.082.223-.148.127-.127.208-.28.333-.408l29.594-29.594c.075-.07.175-.091.248-.164 6.745-6.467 17.388-6.467 24.133 0 6.614 6.637 6.648 17.364.075 24.042l-.1.066-90.858 90.867c-2.155 2.156-2.997 5.297-2.208 8.242s3.089 5.244 6.033 6.033 6.086-.053 8.242-2.208l78.875-78.783.206-.207c6.743-6.485 17.452-6.326 24 .356s6.489 17.392-.131 24.002l-18.089 18.092-.01.008-.004.005-65.93 65.933c-2.156 2.156-2.997 5.297-2.208 8.242.789 2.944 3.089 5.244 6.033 6.033s6.086-.053 8.242-2.208l65.944-65.949c6.666-6.664 17.472-6.661 24.136.005s6.662 17.472-.005 24.136c-.036.036-.046.087-.082.124l-66.134 66.134c-.043.043-.054.102-.096.145-.044.045-.104.06-.146.105-.312.417-.582.862-.808 1.331-.331.442-.618.916-.858 1.413-.158.528-.264 1.07-.315 1.618-.347 1.031-.324 2.151.063 3.168.074.547.202 1.086.381 1.608.266.499.579.971.937 1.41.24.448.522.873.843 1.268.043.043.102.055.145.096.045.043.06.103.105.145 41.675 37.435 86.808 70.832 134.792 99.742 2.733 1.667 6.168 1.667 8.9 0 47.983-28.91 93.116-62.307 134.791-99.742.046-.042.06-.102.105-.145.043-.042.102-.054.145-.096.32-.395.602-.82.843-1.268.357-.438.671-.911.937-1.41.272-1.051.502-2.113.687-3.183-.031-.538-.112-1.071-.244-1.593-.051-.549-.156-1.091-.315-1.618-.24-.497-.528-.971-.858-1.413-.226-.469-.497-.914-.809-1.331-.042-.046-.102-.06-.146-.105-.042-.043-.053-.102-.096-.145l-66.134-66.134c-.036-.037-.046-.087-.082-.124-6.666-6.664-6.668-17.47-.005-24.136 6.664-6.666 17.47-6.668 24.136-.005l65.944 65.949c3.332 3.332 8.734 3.332 12.067 0 3.332-3.332 3.332-8.735 0-12.067l-65.929-65.936-.004-.005-.01-.008-18.089-18.093c-4.313-4.311-5.997-10.595-4.42-16.485s6.177-10.492 12.067-12.071 12.175.104 16.487 4.415l.102.068 78.715 78.707c3.337 3.303 8.716 3.29 12.036-.031 3.32-3.32 3.334-8.699.03-12.036l-78.751-78.676-.066-.099c-.054-.055-.121-.09-.176-.144l-11.866-11.948-.025-.017c-6.657-6.66-6.656-17.455.004-24.112s17.455-6.656 24.112.004c.073.073.173.095.247.165l28.786 28.786c.344.41.708.789 1.162 1.244l.012.014.002.001.006.007 48.892 48.808c2.157 2.158 5.303 3 8.25 2.207 2.947-.792 5.246-3.098 6.03-6.047s-.066-6.092-2.23-8.244l-48.967-48.858c-.148-.19-.316-.364-.477-.543l-.04-.065c-6.148-6.734-5.883-17.121.6-23.533 6.742-6.45 17.367-6.45 24.108 0l30.125 30.117c.178.178.415.242.604.401.891.715 1.902 1.265 2.987 1.623.241.073.426.239.676.292.578.12 1.167.181 1.757.181l.009.002h.003.005c1.037-.01 2.063-.21 3.027-.591.265-.13.523-.274.773-.431.684-.331 1.319-.753 1.89-1.254.102-.093.236-.125.335-.223.18-.18.245-.418.405-.61.44-.513.816-1.079 1.118-1.684.192-.386.354-.787.482-1.198.117-.253.221-.511.311-.774 14.018-66.268.76-123.785-36.373-157.818zm22.443 138.405-18.51-18.505c-13.498-12.888-34.743-12.888-48.242 0-4.219 4.253-7.249 9.538-8.789 15.328l-9.27-9.27c-.131-.132-.308-.176-.447-.297-11.821-11.584-30.266-12.972-43.687-3.287s-17.917 27.627-10.649 42.496c-11.758 2.241-21.469 10.503-25.564 21.749s-1.971 23.819 5.593 33.095c-5.981 1.447-11.452 4.502-15.821 8.835-13.228 13.275-13.295 34.728-.149 48.084.063.068.082.158.149.224l59.822 59.822c-37.724 33.096-78.216 62.898-121.03 89.078-42.814-26.181-83.306-55.982-121.03-89.078l59.822-59.822c.067-.066.085-.156.149-.224 13.146-13.357 13.079-34.809-.149-48.084-4.373-4.329-9.844-7.383-15.824-8.832 7.561-9.272 9.688-21.838 5.6-33.082s-13.788-19.51-25.539-21.762c6.327-13.026 3.728-28.627-6.479-38.899-13.349-12.763-34.334-12.908-47.858-.33-.15.131-.341.179-.483.322l-9.341 9.341c-1.482-5.803-4.483-11.106-8.693-15.366-13.249-13.223-34.676-13.309-48.031-.193-.069.065-.16.084-.227.151l-18.511 18.505c-7.705-53.346 4.309-98.636 33.977-125.822 27.127-23.465 63.348-33.528 98.692-27.417 40.125 6.658 74.375 32.55 96.433 72.917 1.63 2.561 4.456 4.113 7.492 4.113s5.862-1.551 7.492-4.113c22.059-40.367 56.308-66.258 96.433-72.917 35.343-6.109 71.563 3.953 98.692 27.417 29.668 27.187 41.683 72.477 33.977 125.823z"/></svg>