<svg enable-background="new 0 0 511.994 511.994" height="512" viewBox="0 0 511.994 511.994" width="512" xmlns="http://www.w3.org/2000/svg" fill="#9f85dc"><path d="m484.12 125.279h-38.89c-6.722 0-12.365 4.647-13.924 10.893h-21.123c-6.573 0-12.707-1.209-18.231-3.595-8.114-3.504-16.71-5.281-25.549-5.281h-77.613c-11.347 0-20.644 8.705-21.166 19.818-.115 2.429.182 4.804.861 7.052-9.823 1.476-17.445 9.545-17.917 19.575-.111 2.342.161 4.635.79 6.811-10.827.084-20.016 8.562-20.621 19.634-.448-1.313-1.028-2.604-1.749-3.853l-31.774-55.035 9.851 2.35c5.788 1.379 11.973.313 16.964-2.935 13.638-8.873 13.115-29.016-2.099-34.582l-8.866-3.242c-4.395-1.608-8.342-3.904-11.731-6.824-6.52-5.618-17.386-12.88-32.126-15.571-5.042-.92-9.387-3.965-11.921-8.354l-8.083-14c4.628-4.474 5.833-11.683 2.473-17.504-.001 0-.001-.001-.001-.001l-19.446-33.679c-3.838-6.646-12.368-8.932-19.013-5.095l-92.306 53.293c-6.646 3.837-8.93 12.367-5.093 19.013l19.444 33.679c3.39 5.872 10.239 8.406 16.403 6.625l10.554 18.279c3.287 5.694 5.307 11.611 6.003 17.587 1.022 8.781 3.781 17.114 8.2 24.767l38.807 67.216c5.673 9.825 17.861 13.523 27.746 8.421 2.16-1.115 4.069-2.56 5.676-4.272 6.188 7.769 16.989 10.336 25.912 5.729 2.083-1.076 3.933-2.458 5.503-4.09 4.926 8.38 15.247 12.442 24.757 9.121-.501.673-.979 1.369-1.409 2.114l-31.774 55.036-2.89-9.706c-3.559-11.952-16.441-18.508-28.203-14.339-8.323 2.952-13.252 11.457-11.72 20.224l1.624 9.3c.805 4.609.79 9.175-.044 13.571-1.605 8.456-2.462 21.498 2.577 35.608 1.725 4.827 1.26 10.112-1.273 14.501l-8.081 13.996c-6.266-1.808-13.051.82-16.397 6.616l-19.444 33.679c-3.846 6.661-1.569 15.167 5.095 19.013l92.304 53.292c6.652 3.839 15.178 1.547 19.013-5.095l19.446-33.68c3.359-5.821 2.156-13.031-2.473-17.504l10.562-18.293c3.286-5.693 7.4-10.4 12.229-13.992 7.094-5.277 12.931-11.833 17.348-19.485l10.472-18.138c2.071-3.587.842-8.174-2.745-10.245-3.59-2.072-8.176-.842-10.245 2.745l-10.472 18.138c-3.39 5.871-7.867 10.901-13.311 14.95-6.479 4.819-11.952 11.053-16.267 18.527l-10.341 17.909-71.564-41.318 7.862-13.616c4.739-8.208 5.617-18.066 2.41-27.046-3.907-10.938-3.227-21.136-1.968-27.766 1.173-6.178 1.201-12.553.084-18.949l-1.625-9.301c-.264-1.509.578-3.015 1.958-3.505 3.695-1.307 7.699.746 8.813 4.483l5.67 19.044c1.234 4.141 4.805 7.143 9.097 7.646 4.275.502 8.458-1.587 10.619-5.329l36.646-63.472c1.635-2.829 5.17-3.991 7.875-2.594 2.994 1.546 4.029 5.224 2.385 8.078-.001.001-.002.002-.002.004l-33.337 57.742c-2.071 3.587-.842 8.174 2.745 10.245 3.592 2.073 8.177.838 10.245-2.745 37.404-64.786 20.783-35.999 43.069-74.598 1.634-2.829 5.169-3.991 7.875-2.593 2.979 1.537 4.04 5.212 2.383 8.081-3.105 5.377-36.979 64.051-43.257 74.924-2.071 3.587-.842 8.174 2.745 10.245 3.592 2.073 8.177.838 10.245-2.745l33.337-57.742c1.662-2.878 5.379-3.783 8.19-1.977 2.566 1.647 3.324 5.288 1.691 8.116l-8.325 14.419c-.012.022-24.811 42.975-24.823 42.997-2.071 3.587-.842 8.174 2.745 10.245 3.592 2.073 8.177.838 10.245-2.745l24.809-42.971c1.656-2.867 5.366-3.79 8.19-1.977 2.566 1.647 3.325 5.288 1.692 8.116l-10.829 18.757c-2.071 3.587-.842 8.174 2.745 10.245 3.588 2.071 8.174.841 10.245-2.745l10.829-18.757c5.674-9.826 2.783-22.23-6.58-28.24-2.046-1.313-4.252-2.244-6.538-2.779 3.635-9.246.457-19.881-7.993-25.305-1.974-1.267-4.096-2.178-6.295-2.721 5.373-9.478 2.589-21.85-7.031-27.876 1.919.558 3.95.86 6.053.86h63.549l-6.96 7.355c-8.572 9.059-7.807 23.495 1.684 31.595 6.72 5.733 16.552 5.743 23.375.037l7.24-6.057c3.589-3.001 7.551-5.271 11.774-6.747 8.126-2.837 19.849-8.616 29.549-20.037 3.318-3.907 8.128-6.147 13.195-6.147h16.166c1.56 6.246 7.202 10.893 13.924 10.893h38.89c7.675 0 13.918-6.244 13.918-13.918v-38.62c0-4.142-3.357-7.5-7.5-7.5s-7.5 3.358-7.5 7.5v37.54h-37.174c0-12.554 0-91.925 0-104.421h37.174v31.883c0 4.142 3.357 7.5 7.5 7.5s7.5-3.358 7.5-7.5v-32.964c.001-7.675-6.242-13.919-13.917-13.919zm-292.37 371.322-90.431-52.21 18.587-32.193c15.393 8.887 82.479 47.62 90.431 52.21zm-162.401-428.998 90.431-52.21 18.588 32.193c-.326.188-89.417 51.625-90.432 52.21zm171.818 174.843c-2.822 1.811-6.533.894-8.191-1.977-15.659-27.123-29.779-51.579-43.258-74.924-2.072-3.587-6.659-4.815-10.245-2.745-3.587 2.071-4.816 6.658-2.745 10.245l33.338 57.742.007.012c1.642 2.858.594 6.529-2.391 8.069-2.705 1.399-6.241.236-7.874-2.593-14.546-25.193-6.681-11.57-33.149-57.416-2.07-3.588-6.659-4.816-10.245-2.745-3.587 2.071-4.816 6.658-2.745 10.245l24.806 42.967c.001.001.001.003.002.004l.01.018c1.639 2.857.59 6.523-2.393 8.063-2.706 1.401-6.241.236-7.875-2.593l-38.807-67.216c-3.391-5.871-5.507-12.264-6.292-19.001-.934-8.02-3.596-15.876-7.911-23.352l-10.341-17.909 71.564-41.317 7.862 13.617c4.739 8.208 12.837 13.897 22.218 15.609 11.426 2.086 19.917 7.774 25.028 12.179 4.764 4.104 10.271 7.316 16.369 9.548l8.866 3.242c3.435 1.256 2.216 5.876-.929 7.922-1.584 1.029-3.466 1.355-5.303.917l-19.326-4.611c-9.217-2.194-16.595 7.723-11.866 15.915l36.646 63.471c1.633 2.829.874 6.47-1.692 8.117-2.821 1.809-6.531.896-8.189-1.977l-33.338-57.742c-2.072-3.587-6.659-4.817-10.245-2.745-3.587 2.071-4.816 6.658-2.745 10.245 43.429 75.22 33.043 57.231 43.069 74.598 1.634 2.831.875 6.472-1.69 8.118zm35.5 12.57c-1.571-1.635-3.422-3.019-5.507-4.095-5.256-2.713-11.156-2.916-16.389-1.055 4.638-6.382 5.383-15.156 1.338-22.57 2.2-.543 4.324-1.455 6.299-2.722 5.802-3.724 9.112-9.906 9.445-16.406 2.808 8.036 10.464 13.787 19.507 14.006-.63 2.178-.903 4.473-.792 6.816.329 7 4.144 13.04 9.756 16.555-8.864-2.52-18.61 1.2-23.657 9.471zm153.847-9.772c-7.52 8.853-16.691 13.362-23.062 15.586-5.938 2.074-11.474 5.237-16.454 9.403l-7.24 6.057c-1.177.983-2.903 1.008-4.015.058-2.969-2.532-3.215-7.03-.525-9.875l13.656-14.43c6.513-6.881 1.606-18.235-7.849-18.235h-73.291c-3.266 0-6.04-2.478-6.184-5.523-.156-3.357 2.5-6.104 5.808-6.104h66.674c4.143 0 7.5-3.358 7.5-7.5s-3.357-7.5-7.5-7.5c-10.352 0-75.815 0-86.138 0-3.267 0-6.04-2.478-6.184-5.522-.159-3.367 2.51-6.105 5.807-6.105h86.515c4.143 0 7.5-3.358 7.5-7.5s-3.357-7.5-7.5-7.5h-66.674c-3.301 0-5.965-2.742-5.807-6.105.143-3.045 2.917-5.522 6.183-5.522h66.298c4.143 0 7.5-3.358 7.5-7.5s-3.357-7.5-7.5-7.5h-49.618c-.002 0-.003 0-.003 0-3.293-.003-5.962-2.735-5.803-6.105.143-3.046 2.917-5.523 6.183-5.523h77.613c6.781 0 13.376 1.363 19.602 4.052 7.413 3.202 15.548 4.825 24.179 4.825h20.681v82.635h-15.724c-9.479-.003-18.455 4.165-24.628 11.433z"/></svg>