<svg height="640" viewBox="-63 0 479 480" width="640" xmlns="http://www.w3.org/2000/svg" fill="#a58ddc"><path d="M352.395 135.52a7.625 7.625 0 00-.48-2.282 6.303 6.303 0 00-.302-.797 7.926 7.926 0 00-1.73-2.402l-88-80a7.978 7.978 0 00-2.278-1.406c-.242-.106-.488-.153-.738-.235a7.957 7.957 0 00-1.91-.351A4.53 4.53 0 00256.5 48h-112v-8c-.027-22.082-17.918-39.973-40-40h-16c-22.082.027-39.973 17.918-40 40v8h-8C18.418 48.027.527 65.918.5 88v352c.027 22.082 17.918 39.973 40 40h272c22.082-.027 39.973-17.918 40-40V136c0-.168-.09-.313-.105-.48zM264.5 74.09L323.805 128H272.5a8 8 0 01-8-8zM64.5 40c0-13.254 10.746-24 24-24h16c13.254 0 24 10.746 24 24v96c0 13.254-10.746 24-24 24h-16c-13.254 0-24-10.746-24-24V96h8v40c0 8.836 7.164 16 16 16h16c8.836 0 16-7.164 16-16V40c0-8.836-7.164-16-16-16h-16c-8.836 0-16 7.164-16 16v8h-8zm40 8h-16v-8h16zm208 416h-272c-13.254 0-24-10.746-24-24V88c0-13.254 10.746-24 24-24h64v72h-16V88a8 8 0 00-8-8h-24a8 8 0 00-8 8v48c.027 22.082 17.918 39.973 40 40h16c22.082-.027 39.973-17.918 40-40V64h104v56c0 13.254 10.746 24 24 24h64v296c0 13.254-10.746 24-24 24zm0 0"/><path d="M120.5 224h176a8 8 0 000-16h-176a8 8 0 000 16zm-64 48h240a8 8 0 000-16h-240a8 8 0 000 16zm0 48h240a8 8 0 000-16h-240a8 8 0 000 16zm0 48h240a8 8 0 000-16h-240a8 8 0 000 16zm176 32h-176a8 8 0 000 16h176a8 8 0 000-16zm80 0a8 8 0 00-8 8v16a8 8 0 01-8 8h-16a8 8 0 000 16h16c13.254 0 24-10.746 24-24v-16a8 8 0 00-8-8zm0 0"/></svg>