<svg height="512" viewBox="0 0 128 128" width="512" xmlns="http://www.w3.org/2000/svg"><g fill="#9f85dc"><path d="M82.373 57.42c0 14.859 6.443 26.5 14.67 26.5s14.67-11.641 14.67-26.5-6.443-26.5-14.67-26.5-14.67 11.641-14.67 26.5zm25.84 0c0 12.468-5.115 23-11.17 23s-11.17-10.532-11.17-23 5.115-23 11.17-23 11.17 10.532 11.17 23z"/><path d="M126.24-.04H67.85a1.752 1.752 0 00-1.75 1.75v8.7c0 .03.01.06.01.09a.215.215 0 000 .08l5.13 51.92h-2.06v-1.69a8.766 8.766 0 00-7.06-8.59 33.853 33.853 0 00-6.42-18.34l-4.33-5.97a1.738 1.738 0 00-1.39-.72 1.648 1.648 0 00-1.41.68l-5.2 6.79a17.885 17.885 0 01-14.11 6.96 12.2 12.2 0 00-12.08 10.59 8.758 8.758 0 00-7.13 8.6v1.69H7.7a1.752 1.752 0 00-1.75 1.75v11.52H1.74a1.746 1.746 0 00-1.75 1.75v19.73a49.09 49.09 0 0010.37 30.11 1.738 1.738 0 001.38.68h55.75a1.738 1.738 0 001.38-.68 48.914 48.914 0 006.53-11.17v6.02a5.757 5.757 0 005.75 5.75h31.61a5.751 5.751 0 005.75-5.75v-17.03a1.625 1.625 0 00.17-.58l9.3-94.02v-.08c0-.03.01-.06.01-.09v-8.7a1.752 1.752 0 00-1.75-1.75zM13.55 60.81a5.266 5.266 0 015.27-5.25h14.83a1.75 1.75 0 000-3.5h-12.9a8.7 8.7 0 018.51-6.94 21.39 21.39 0 0016.88-8.33l3.78-4.92 2.94 4.07a30.2 30.2 0 015.73 16.12h-3.38a1.75 1.75 0 000 3.5h4.86a.984.984 0 00.17-.02.874.874 0 00.16.02h.03a5.262 5.262 0 015.25 5.25v1.69H13.55zm-4.1 11.82h21.29a1.75 1.75 0 000-3.5H9.45V66h60.33v3.13H48.49a1.75 1.75 0 100 3.5h21.29v3.14H9.45zm66.29 24.62c0 .91-.04 1.84-.1 2.77-.01.13-.01.27-.02.4-.07.91-.16 1.82-.28 2.73a45.626 45.626 0 01-8.72 21.39H12.6a45.656 45.656 0 01-9.11-27.29V79.27h72.25zm39.27 24.96a2.253 2.253 0 01-2.25 2.25H81.15a2.253 2.253 0 01-2.25-2.25v-9.16h36.11zm0-12.66H78.9v-3.37h36.11zm.34-6.87H78.93l.03-.35c.07-.67.13-1.34.17-2.01.01-.2.03-.4.04-.6.04-.82.07-1.65.07-2.47V77.52a1.746 1.746 0 00-1.75-1.75h-1.42l-6.29-63.61h54.53zm9.14-94.02H69.6v-5.2h54.89z"/><path d="M55.2 95.428a1.75 1.75 0 00-1.75-1.75 15.437 15.437 0 00-7.334 1.831A12.88 12.88 0 0040.49 88.8a1.748 1.748 0 00-1.754 0 12.876 12.876 0 00-5.623 6.71 15.437 15.437 0 00-7.334-1.831 1.75 1.75 0 00-1.75 1.75v.234a15.494 15.494 0 003.377 9.658 9.723 9.723 0 00-3.142 3.3 1.751 1.751 0 000 1.753 9.725 9.725 0 0015.349 1.971 9.724 9.724 0 0015.348-1.972 1.749 1.749 0 000-1.752 9.723 9.723 0 00-3.141-3.3 15.5 15.5 0 003.38-9.659zm-8.319 3.693a11.911 11.911 0 014.706-1.8 12.2 12.2 0 01-6.41 9.064c.189-.1.346-.7.43-.881a15.224 15.224 0 00.68-1.706 12.831 12.831 0 00.59-4.677zM39.613 92.4a9.322 9.322 0 010 14.989 9.321 9.321 0 010-14.989zm-7.263 6.721a12.711 12.711 0 00.577 4.645 12.421 12.421 0 00.742 1.82 8.045 8.045 0 01.372.79 12.2 12.2 0 01-6.4-9.057 11.921 11.921 0 014.709 1.802zm.347 12.618a6.262 6.262 0 01-4.789-2.245 6.226 6.226 0 012.045-1.6 15.785 15.785 0 006.007 2.923 6.235 6.235 0 01-3.26.922zm13.833 0a6.226 6.226 0 01-3.263-.927 15.781 15.781 0 006.007-2.923 6.216 6.216 0 012.045 1.6 6.259 6.259 0 01-4.79 2.25zm2.22-59.679h-3.512a1.75 1.75 0 000 3.5h3.512a1.75 1.75 0 000-3.5z"/></g></svg>