<svg height="512" viewBox="0 0 511.994 511.994" width="512" xmlns="http://www.w3.org/2000/svg" fill="#9f85dc"><path d="M484.12 125.279h-38.89c-6.722 0-12.365 4.647-13.924 10.893h-21.123c-6.573 0-12.707-1.209-18.231-3.595a64.077 64.077 0 00-25.549-5.281H288.79c-11.347 0-20.644 8.705-21.166 19.818a20.919 20.919 0 00.861 7.052c-9.823 1.476-17.445 9.545-17.917 19.575a20.919 20.919 0 00.79 6.811c-10.827.084-20.016 8.562-20.621 19.634a21.749 21.749 0 00-1.749-3.853l-31.774-55.035 9.851 2.35a21.923 21.923 0 0016.964-2.935c13.638-8.873 13.115-29.016-2.099-34.582l-8.866-3.242c-4.395-1.608-8.342-3.904-11.731-6.824-6.52-5.618-17.386-12.88-32.126-15.571-5.042-.92-9.387-3.965-11.921-8.354l-8.083-14c4.628-4.474 5.833-11.683 2.473-17.504l-.001-.001-19.446-33.679c-3.838-6.646-12.368-8.932-19.013-5.095L20.91 55.154c-6.646 3.837-8.93 12.367-5.093 19.013l19.444 33.679c3.39 5.872 10.239 8.406 16.403 6.625l10.554 18.279c3.287 5.694 5.307 11.611 6.003 17.587a64.057 64.057 0 008.2 24.767l38.807 67.216c5.673 9.825 17.861 13.523 27.746 8.421a20.93 20.93 0 005.676-4.272c6.188 7.769 16.989 10.336 25.912 5.729a20.97 20.97 0 005.503-4.09c4.926 8.38 15.247 12.442 24.757 9.121a21.747 21.747 0 00-1.409 2.114l-31.774 55.036-2.89-9.706c-3.559-11.952-16.441-18.508-28.203-14.339-8.323 2.952-13.252 11.457-11.72 20.224l1.624 9.3c.805 4.609.79 9.175-.044 13.571-1.605 8.456-2.462 21.498 2.577 35.608 1.725 4.827 1.26 10.112-1.273 14.501l-8.081 13.996a14.322 14.322 0 00-16.397 6.616l-19.444 33.679c-3.846 6.661-1.569 15.167 5.095 19.013l92.304 53.292c6.652 3.839 15.178 1.547 19.013-5.095l19.446-33.68c3.359-5.821 2.156-13.031-2.473-17.504l10.562-18.293c3.286-5.693 7.4-10.4 12.229-13.992a64.067 64.067 0 0017.348-19.485l10.472-18.138a7.5 7.5 0 00-2.745-10.245 7.498 7.498 0 00-10.245 2.745l-10.472 18.138a49.16 49.16 0 01-13.311 14.95c-6.479 4.819-11.952 11.053-16.267 18.527l-10.341 17.909-71.564-41.318 7.862-13.616c4.739-8.208 5.617-18.066 2.41-27.046-3.907-10.938-3.227-21.136-1.968-27.766 1.173-6.178 1.201-12.553.084-18.949l-1.625-9.301c-.264-1.509.578-3.015 1.958-3.505a6.814 6.814 0 018.813 4.483l5.67 19.044a10.796 10.796 0 009.097 7.646 10.813 10.813 0 0010.619-5.329l36.646-63.472c1.635-2.829 5.17-3.991 7.875-2.594a5.811 5.811 0 012.385 8.078l-.002.004-33.337 57.742a7.5 7.5 0 0012.99 7.5l43.069-74.598c1.634-2.829 5.169-3.991 7.875-2.593a5.81 5.81 0 012.383 8.081l-43.257 74.924a7.5 7.5 0 0012.99 7.5l33.337-57.742a5.81 5.81 0 018.19-1.977c2.566 1.647 3.324 5.288 1.691 8.116l-8.325 14.419-24.823 42.997a7.5 7.5 0 0012.99 7.5l24.809-42.971a5.81 5.81 0 018.19-1.977c2.566 1.647 3.325 5.288 1.692 8.116l-10.829 18.757a7.5 7.5 0 0012.99 7.5l10.829-18.757c5.674-9.826 2.783-22.23-6.58-28.24a20.922 20.922 0 00-6.538-2.779c3.635-9.246.457-19.881-7.993-25.305a20.936 20.936 0 00-6.295-2.721c5.373-9.478 2.589-21.85-7.031-27.876 1.919.558 3.95.86 6.053.86h63.549l-6.96 7.355c-8.572 9.059-7.807 23.495 1.684 31.595 6.72 5.733 16.552 5.743 23.375.037l7.24-6.057c3.589-3.001 7.551-5.271 11.774-6.747 8.126-2.837 19.849-8.616 29.549-20.037 3.318-3.907 8.128-6.147 13.195-6.147h16.166c1.56 6.246 7.202 10.893 13.924 10.893h38.89c7.675 0 13.918-6.244 13.918-13.918v-38.62c0-4.142-3.357-7.5-7.5-7.5s-7.5 3.358-7.5 7.5v37.54h-37.174V140.279h37.174v31.883c0 4.142 3.357 7.5 7.5 7.5s7.5-3.358 7.5-7.5v-32.964c.001-7.675-6.242-13.919-13.917-13.919zM191.75 496.601l-90.431-52.21 18.587-32.193 90.431 52.21zM29.349 67.603l90.431-52.21 18.588 32.193-90.432 52.21zm171.818 174.843a5.81 5.81 0 01-8.191-1.977 2283192.33 2283192.33 0 00-43.258-74.924 7.5 7.5 0 00-12.99 7.5l33.338 57.742.007.012a5.81 5.81 0 01-2.391 8.069c-2.705 1.399-6.241.236-7.874-2.593l-33.149-57.416a7.5 7.5 0 00-12.99 7.5l24.806 42.967.002.004.01.018a5.808 5.808 0 01-2.393 8.063c-2.706 1.401-6.241.236-7.875-2.593l-38.807-67.216a49.144 49.144 0 01-6.292-19.001c-.934-8.02-3.596-15.876-7.911-23.352L64.868 107.34l71.564-41.317 7.862 13.617c4.739 8.208 12.837 13.897 22.218 15.609 11.426 2.086 19.917 7.774 25.028 12.179 4.764 4.104 10.271 7.316 16.369 9.548l8.866 3.242c3.435 1.256 2.216 5.876-.929 7.922a6.764 6.764 0 01-5.303.917l-19.326-4.611c-9.217-2.194-16.595 7.723-11.866 15.915l36.646 63.471c1.633 2.829.874 6.47-1.692 8.117a5.808 5.808 0 01-8.189-1.977l-33.338-57.742a7.5 7.5 0 10-12.99 7.5l43.069 74.598c1.634 2.831.875 6.472-1.69 8.118zm35.5 12.57a20.925 20.925 0 00-5.507-4.095c-5.256-2.713-11.156-2.916-16.389-1.055 4.638-6.382 5.383-15.156 1.338-22.57a20.96 20.96 0 006.299-2.722c5.802-3.724 9.112-9.906 9.445-16.406 2.808 8.036 10.464 13.787 19.507 14.006a20.926 20.926 0 00-.792 6.816c.329 7 4.144 13.04 9.756 16.555-8.864-2.52-18.61 1.2-23.657 9.471zm153.847-9.772c-7.52 8.853-16.691 13.362-23.062 15.586-5.938 2.074-11.474 5.237-16.454 9.403l-7.24 6.057c-1.177.983-2.903 1.008-4.015.058a6.814 6.814 0 01-.525-9.875l13.656-14.43c6.513-6.881 1.606-18.235-7.849-18.235h-73.291c-3.266 0-6.04-2.478-6.184-5.523a5.81 5.81 0 015.808-6.104h66.674c4.143 0 7.5-3.358 7.5-7.5s-3.357-7.5-7.5-7.5h-86.138c-3.267 0-6.04-2.478-6.184-5.522a5.81 5.81 0 015.807-6.105h86.515c4.143 0 7.5-3.358 7.5-7.5s-3.357-7.5-7.5-7.5h-66.674a5.81 5.81 0 01-5.807-6.105c.143-3.045 2.917-5.522 6.183-5.522h66.298c4.143 0 7.5-3.358 7.5-7.5s-3.357-7.5-7.5-7.5h-49.621a5.809 5.809 0 01-5.803-6.105c.143-3.046 2.917-5.523 6.183-5.523h77.613a49.156 49.156 0 0119.602 4.052c7.413 3.202 15.548 4.825 24.179 4.825h20.681v82.635h-15.724c-9.479-.003-18.455 4.165-24.628 11.433z"/></svg>